PathFileType	4	(X/Y/Z)	/Users/niels/Desktop/University/Third Semester/Perception and Action/Exam/Gymnastics Motion Tracking/Code for Gym Tracking/Analyzed Data/Webcam_Backflip/id2000_1_baseline_Sports2D/id2000_1_baseline_Sports2D_px_person00.trc
DataRate	CameraRate	NumFrames	NumMarkers	Units	OrigDataRate	OrigDataStartFrame	OrigNumFrames
29.88372093023256	29.88372093023256	11	22	m	29.88372093023256	129	258
Frame#	Time	Hip			RHip			RKnee			RAnkle			RBigToe			RSmallToe			RHeel			LHip			LKnee			LAnkle			LBigToe			LSmallToe			LHeel			Neck			Head			Nose			RShoulder			RElbow			RWrist			LShoulder			LElbow			LWrist		
		X1	Y1	Z1	X2	Y2	Z2	X3	Y3	Z3	X4	Y4	Z4	X5	Y5	Z5	X6	Y6	Z6	X7	Y7	Z7	X8	Y8	Z8	X9	Y9	Z9	X10	Y10	Z10	X11	Y11	Z11	X12	Y12	Z12	X13	Y13	Z13	X14	Y14	Z14	X15	Y15	Z15	X16	Y16	Z16	X17	Y17	Z17	X18	Y18	Z18	X19	Y19	Z19	X20	Y20	Z20	X21	Y21	Z21	X22	Y22	Z22
129	4.316731517509727	0.8645218060188257	-0.5143058370677378	0.0	0.8355388449246404	-0.5204964264830806	0.0	1.0085857934590154	-0.8630645835699033	0.0	1.0102228221946985	-1.0640402333166614	0.0	1.1914479989371884	-1.0641564257613032	0.0	1.1603819753005438	-1.0953496898447261	0.0	0.9883669154886846	-1.082361836953164	0.0	0.8949857517656963	-0.5295055685091676	0.0	1.0243486363436776	-0.8565188116186292	0.0	1.0760680952996056	-1.0431888561132745	0.0	1.1804719075175556	-1.0535263034602775	0.0	1.1632380096448507	-1.047171384519682	0.0	1.0389954094234741	-1.0688990466033401	0.0	1.283844364489503	-0.3455551074571179	0.0	1.4945022007169322	-0.23689377108118545	0.0	1.4290631508080767	-0.3311421316781801	0.0	1.1955153411802992	-0.37941650104304986	0.0	1.0842400198590838	-0.6602894460593312	0.0	1.0858192627343064	-0.9027835098273961	0.0	1.2261890509735829	-0.37720001907536166	0.0	1.1054464147148761	-0.635811243351349	0.0	1.0939838110783136	-0.854808440437215	0.0
130	4.3501945525291825	0.8736869576414182	-0.5098578947027083	0.0	0.8426418115326999	-0.5159776915883411	0.0	1.006244248095849	-0.8653832588461188	0.0	1.0038068963007931	-1.063678819979614	0.0	1.1888741367885793	-1.0724589631279533	0.0	1.1617503912981484	-1.0950912279563836	0.0	0.9862372824720544	-1.08357248165406	0.0	0.9141396183417422	-0.5274714385967505	0.0	1.0249622886046355	-0.858229578178641	0.0	1.0661030179371254	-1.041599617440914	0.0	1.16961680962937	-1.0576537540633508	0.0	1.1530317244953159	-1.048614640401605	0.0	1.0269048722260075	-1.067966734439364	0.0	1.2821560569828236	-0.3148215284676856	0.0	1.487657347326587	-0.19332601212855377	0.0	1.4251757825977085	-0.29278968973114555	0.0	1.194311426415928	-0.34923333512294846	0.0	1.0821901159770801	-0.6295855994384235	0.0	1.0816856926315206	-0.8728221437703478	0.0	1.2285656248397265	-0.35308838311615304	0.0	1.106095115615258	-0.6088375427146103	0.0	1.0918720792913534	-0.8332688640304116	0.0
131	4.383657587548638	0.8826075487005118	-0.5053719044769611	0.0	0.8504492152778416	-0.5115994009587472	0.0	1.0051865551827268	-0.8666917694361611	0.0	0.9977266925256588	-1.064571787452986	0.0	1.1871791463932353	-1.0874655293498543	0.0	1.1622959780458677	-1.0949964663533474	0.0	0.9854482742359881	-1.0844868702563382	0.0	0.930706522877992	-0.5243094099842636	0.0	1.0257206742114338	-0.8585315150749168	0.0	1.0569486340543712	-1.041537034040467	0.0	1.15996128911179	-1.0615237778501978	0.0	1.1426266366237794	-1.0510242766994946	0.0	1.0162805735469482	-1.0667023477978848	0.0	1.2780952895574687	-0.2824653081468514	0.0	1.4785378252165473	-0.15139170321019138	0.0	1.4193550876744119	-0.2517125664171049	0.0	1.1924934218262977	-0.3179820878403864	0.0	1.0801377445182538	-0.5979137886036908	0.0	1.0803005593918993	-0.8425782879974612	0.0	1.229051506823427	-0.326623844126704	0.0	1.1066982868285355	-0.5800622213159616	0.0	1.0925774105620738	-0.8095131111934121	0.0
132	4.417120622568094	0.8913711112616524	-0.501109268266075	0.0	0.8592140480675734	-0.5073420538184114	0.0	1.005767500974955	-0.8666757418222001	0.0	0.9937521385507136	-1.0662765781492474	0.0	1.1863446267838231	-1.1077675400003926	0.0	1.1623538039632837	-1.095001584940925	0.0	0.9857827592810876	-1.0847138883218368	0.0	0.9438184331532234	-0.5199911305714394	0.0	1.0276489801605433	-0.8568529118364339	0.0	1.0521237026104593	-1.0423465322223422	0.0	1.1535608650121971	-1.0650682613942672	0.0	1.1349106282992532	-1.0541840640534361	0.0	1.0110058068496814	-1.0656576016220152	0.0	1.2711584997257552	-0.24946416839863947	0.0	1.4665736439659869	-0.11483979009812838	0.0	1.4115134803647953	-0.20929979330626036	0.0	1.1895737979137821	-0.28627767045685704	0.0	1.077747960377826	-0.56567637069326	0.0	1.081288241790538	-0.8128407492497106	0.0	1.2271531082239486	-0.29839863442897996	0.0	1.1068825237510957	-0.5500276671899744	0.0	1.095737692214589	-0.7833684571157461	0.0
133	4.450583657587549	0.9003822734139891	-0.4974486608915617	0.0	0.8691358327798804	-0.5033787209880921	0.0	1.0082702426266699	-0.8662670007776124	0.0	0.9928743822125569	-1.0684583365426268	0.0	1.1858207275830197	-1.1301118990332029	0.0	1.162193774347195	-1.0950534384459472	0.0	0.9867059246885174	-1.0844225000005694	0.0	0.9539880002126638	-0.5151782111161508	0.0	1.0315513137145427	-0.8541684120834253	0.0	1.0529732185053569	-1.0433428935312627	0.0	1.1515026965307666	-1.0679923397256186	0.0	1.1319309355368483	-1.0573452234728065	0.0	1.0123580771906158	-1.0651948802583997	0.0	1.26142082704366	-0.2169168131713533	0.0	1.4511722963557259	-0.08622060884017622	0.0	1.4013815377119783	-0.16712921473164633	0.0	1.1851539741624482	-0.25442262531588045	0.0	1.0748598067128674	-0.5331058827719604	0.0	1.0841058775599957	-0.7836676411588153	0.0	1.2232273706752628	-0.2692541110280811	0.0	1.1070086968417212	-0.5194796480322897	0.0	1.1011748481305035	-0.7543365487070148	0.0
134	4.484046692607004	0.9099507641748635	-0.49463018607163317	0.0	0.8799404274097449	-0.5000553535852712	0.0	1.0127654925154401	-0.8667490284637915	0.0	0.9951523539950101	-1.0709345529256082	0.0	1.1848691317698343	-1.150131641306126	0.0	1.161986632134079	-1.095113340142958	0.0	0.9877624129529294	-1.084040519362482	0.0	0.9625960020612649	-0.5107580571314955	0.0	1.0374602304721572	-0.852013124354486	0.0	1.0581472773439544	-1.0441468754496657	0.0	1.153592917969698	-1.0701233913490475	0.0	1.134389363770794	-1.0596982239819173	0.0	1.0192992730861608	-1.0652870257019116	0.0	1.2493240871670916	-0.1860107424850566	0.0	1.4319681022415642	-0.06610754112076915	0.0	1.3886921814086812	-0.12695266033147182	0.0	1.1791000781677203	-0.22279212593713443	0.0	1.0714910543191243	-0.500612183891085	0.0	1.088255186270148	-0.7547867588392497	0.0	1.2179355384441728	-0.23997011407968522	0.0	1.107767198381791	-0.48928935455080286	0.0	1.10884488641995	-0.7218141439836231	0.0
135	4.517509727626459	0.9201289643884396	-0.4926951894636879	0.0	0.8910853791945732	-0.4978482053277263	0.0	1.0190299245570076	-0.8687503330069214	0.0	0.9999861848371985	-1.073486384070658	0.0	1.1829411578639701	-1.1631625520757414	0.0	1.161817124924611	-1.095151328228977	0.0	0.9886983974264116	-1.0838420945809573	0.0	0.971086747716688	-0.5074648254852622	0.0	1.0446794069005303	-0.8513526811425903	0.0	1.0650503071120903	-1.0446378829065799	0.0	1.1583098616584158	-1.0716141355951958	0.0	1.1411923802337567	-1.0610546150259401	0.0	1.029289028375014	-1.0656336318326542	0.0	1.2354384145738986	-0.15765779612314326	0.0	1.4090459532053112	-0.05299088139816525	0.0	1.3734128140959603	-0.09064820643321056	0.0	1.1715672901724987	-0.19208279529958316	0.0	1.0677336730249114	-0.4688269060332483	0.0	1.0934121551843385	-0.7259679588649646	0.0	1.2117443730015343	-0.2111503398032958	0.0	1.109800892807462	-0.46027326147113284	0.0	1.1186999374823723	-0.6855906856036205	0.0
136	4.550972762645914	0.930790120906036	-0.4915331531755248	0.0	0.9023042843281639	-0.4971824072393607	0.0	1.026609370082762	-0.8719670195576532	0.0	1.0064994864915997	-1.0757751179619939	0.0	1.180114570020858	-1.1654959777611276	0.0	1.1617130642329696	-1.0951382434033339	0.0	0.9895103595945163	-1.0838744135476293	0.0	0.9800622512186173	-0.5057221195662501	0.0	1.0520340243254227	-0.8523530447843491	0.0	1.0713313763013144	-1.0448886306921972	0.0	1.163355583384092	-1.0727552145142085	0.0	1.1496500529206026	-1.0620179795056985	0.0	1.03891018461367	-1.0659965924410992	0.0	1.2204194088242901	-0.13221306802832647	0.0	1.382795509443137	-0.04395959863286541	0.0	1.3557195891917606	-0.059758446806282076	0.0	1.162758879401617	-0.16315811123548973	0.0	1.06358837423888	-0.4383676427038542	0.0	1.0993569337194853	-0.6971465002235806	0.0	1.204837781676331	-0.1835052511628349	0.0	1.1134493446503275	-0.433120537235885	0.0	1.1304594185552972	-0.6462465623688888	0.0
137	4.584435797665369	0.9416935087607056	-0.49090930081003714	0.0	0.9138056954316576	-0.49802007794932107	0.0	1.0348322609292386	-0.8755431375785575	0.0	1.013744222730046	-1.0774879619649427	0.0	1.1774551373491853	-1.1564939742928777	0.0	1.161672768012504	-1.0950416004576353	0.0	0.9905113066971638	-1.0841352419687342	0.0	0.9891196289189779	-0.5054418335386502	0.0	1.0583073118012616	-0.8545658210680335	0.0	1.0755859056736203	-1.0449973682317069	0.0	1.1668357426779592	-1.073675973025924	0.0	1.156905083047199	-1.063287050885766	0.0	1.0453479896816655	-1.0662835781609687	0.0	1.2047116764825412	-0.10976518218045624	0.0	1.3538035531083863	-0.03642049185167407	0.0	1.3357372629880317	-0.03515987162334927	0.0	1.152804369888	-0.1366924184333813	0.0	1.058878642092252	-0.40959722876740723	0.0	1.1058553466856644	-0.6683751488756519	0.0	1.1970444389115098	-0.1579186740191904	0.0	1.118304583047877	-0.4083939737933495	0.0	1.14331673702906	-0.6053445325427829	0.0
138	4.6178988326848245	0.9525742293349515	-0.49049403912165584	0.0	0.926008986941001	-0.49957994304371517	0.0	1.0428229555263384	-0.8785428176177352	0.0	1.020676898491828	-1.0785286998156707	0.0	1.1767025559702131	-1.1400304097852916	0.0	1.1616835615627739	-1.0948307605844672	0.0	0.991967534906414	-1.0846672994652093	0.0	0.9976880008245015	-0.5059333316874759	0.0	1.0628475823515287	-0.8570428603061864	0.0	1.0776080308622398	-1.0448949867743402	0.0	1.1683033565105145	-1.0742213526867694	0.0	1.1615367123382483	-1.0648994883041611	0.0	1.047470439386066	-1.0664562374236717	0.0	1.1881529608003312	-0.0906706952020462	0.0	1.3232664845324653	-0.02966510613029052	0.0	1.3135124926359945	-0.017223095684080612	0.0	1.1419448398508834	-0.11297932362212712	0.0	1.0533300883761334	-0.38261426347867555	0.0	1.1126515110980855	-0.6397934953422957	0.0	1.1878092521234787	-0.13508950843365788	0.0	1.1228379288888741	-0.38647260921368015	0.0	1.155809891597948	-0.5652388976499307	0.0
139	4.65136186770428	0.9632290061818801	-0.48993365978064596	0.0	0.9391272056042702	-0.5005914915840286	0.0	1.049793947456147	-0.8801616564603466	0.0	1.0262986256962776	-1.0789850279948927	0.0	1.1790321963456172	-1.1224579907058039	0.0	1.1617300020219345	-1.0944966775275777	0.0	0.9935879221822371	-1.0854782234773241	0.0	1.0055110265319633	-0.5061138176153978	0.0	1.0657171756541928	-0.8585927530965288	0.0	1.0781272749443553	-1.0444572272193218	0.0	1.1685389859248274	-1.074001638432156	0.0	1.1636882416765775	-1.0662397645306272	0.0	1.0455900569426313	-1.0665150692454868	0.0	1.1701529367261874	-0.07560995291421946	0.0	1.2932645557039217	-0.024840702450102024	0.0	1.2893941789574017	-0.005924177060677597	0.0	1.1306322963249953	-0.09202790856663767	0.0	1.0467446911965776	-0.35739559623118644	0.0	1.119525117085943	-0.6115677753728795	0.0	1.1764004536965589	-0.11528614620862764	0.0	1.124883449929778	-0.36739038184748896	0.0	1.166208130465097	-0.5280655234935647	0.0
